<!-- Generator: Adobe Illustrator 18.0.0, SVG Export Plug-In  -->
<svg version="1.1"
	 xmlns="http://www.w3.org/2000/svg" xmlns:xlink="http://www.w3.org/1999/xlink" xmlns:a="http://ns.adobe.com/AdobeSVGViewerExtensions/3.0/"
	 x="0px" y="0px" width="158.2px" height="164.2px" viewBox="0 0 158.2 164.2" enable-background="new 0 0 158.2 164.2"
	 xml:space="preserve">
<defs>
</defs>
<g>
	<line x1="3.8" y1="160.5" x2="3.8" y2="38.8"/>
	<g>
		<path d="M7.5,160.5c0-40.6,0-81.1,0-121.7C7.5,34,0,34,0,38.8c0,40.6,0,81.1,0,121.7C0,165.4,7.5,165.4,7.5,160.5L7.5,160.5z"/>
	</g>
</g>
<g>
	<line x1="79.7" y1="142.9" x2="79.7" y2="21.2"/>
	<g>
		<path d="M83.5,142.9c0-40.6,0-81.1,0-121.7c0-4.8-7.5-4.8-7.5,0c0,40.6,0,81.1,0,121.7C76,147.8,83.5,147.8,83.5,142.9L83.5,142.9
			z"/>
	</g>
</g>
<g>
	<line x1="154.4" y1="125.4" x2="154.4" y2="3.6"/>
	<g>
		<path d="M158.2,125.4c0-40.6,0-81.1,0-121.7c0-4.8-7.5-4.8-7.5,0c0,40.6,0,81.1,0,121.7C150.7,130.2,158.2,130.2,158.2,125.4
			L158.2,125.4z"/>
	</g>
</g>
<g>
	<line x1="3.8" y1="38.8" x2="154.4" y2="3.6"/>
	<g>
		<path d="M5,42.2C52.5,31.1,100,20.1,147.5,9c2.7-0.6,5.5-1.3,8.2-1.9c3.2-0.7,0-7.5-2.5-6.9c-47.5,11.1-95,22.2-142.5,33.3
			c-2.7,0.6-5.5,1.3-8.2,1.9C-0.7,36.1,2.4,42.8,5,42.2L5,42.2z"/>
	</g>
</g>
</svg>
