<?xml version="1.0" encoding="utf-8"?>
<!-- Generator: Adobe Illustrator 18.1.0, SVG Export Plug-In . SVG Version: 6.00 Build 0)  -->
<svg version="1.1" id="Layer_1" xmlns="http://www.w3.org/2000/svg" xmlns:xlink="http://www.w3.org/1999/xlink" x="0px" y="0px"
	 viewBox="0 0 320 320" enable-background="new 0 0 320 320" xml:space="preserve">
<g>
	<path fill="#FFFFFF" d="M64.8,177.2c12.3,0,24.4,0,38.1,0c-1.8-2.2-2.6-4.4-4-4.9c-6.8-2.4-7-2.5-5.7-10.7c2.7-0.1,5.5-0.2,8.4-0.4
		c0-2,0-3.7,0-5.9c-3,0-5.8,0-9.1,0c0-11.1,0-21.8,0-33.5c-4.7,4-8.3,7.7-12.4,10.6c-5.1,3.6-7.6,8-6.5,14.3
		c0.4,2.7,0.1,5.5,0.1,8.4c-6.9,0-13.2,0-20.6,0c3-4.3,5.2-8.2,8-11.5c6.6-7.9,13.8-15.4,20.3-23.4c2.8-3.5,4.4-8.1,6.7-12.5
		c-9.5,0-17.8,0-25.9,0c-2.4,16.7-8.4,31.5-17.3,45.2c-1.4,2.2-1.5,5.3-2.4,8.7c11.3,0,21.2,0,31.7,0c-0.6,3.2-0.2,6.4-1.7,8.1
		c-1.6,1.8-4.9,2.2-7.6,3.3C64.8,174.4,64.8,175.7,64.8,177.2z"/>
	<path d="M64.8,177.2c0-1.5,0-2.8,0-4c2.7-1.1,6-1.5,7.6-3.3c1.5-1.7,1.1-4.9,1.7-8.1c-10.5,0-20.4,0-31.7,0c0.9-3.5,1-6.5,2.4-8.7
		c8.9-13.8,14.9-28.6,17.3-45.2c8.2,0,16.4,0,25.9,0c-2.3,4.4-3.9,8.9-6.7,12.5c-6.4,8-13.6,15.5-20.3,23.4c-2.8,3.3-5,7.2-8,11.5
		c7.4,0,13.7,0,20.6,0c0-2.8,0.4-5.7-0.1-8.4c-1-6.4,1.5-10.7,6.5-14.3c4.1-3,7.8-6.6,12.4-10.6c0,11.6,0,22.3,0,33.5
		c3.3,0,6,0,9.1,0c0,2.2,0,3.9,0,5.9c-3,0.1-5.7,0.3-8.4,0.4c-1.3,8.2-1.1,8.3,5.7,10.7c1.4,0.5,2.2,2.6,4,4.9
		C89.1,177.2,77,177.2,64.8,177.2z"/>
</g>
<rect x="111" y="92.4" width="9.6" height="102.2"/>
<rect x="124.8" y="92.4" width="4.8" height="102.2"/>
<text transform="matrix(1 0 0 1 131.7557 171.5758)" font-family="'SegoeUI-Bold'" font-size="72">BAR</text>
</svg>
